HIERARCHY
ROOT pelvis
{
  OFFSET 0 100 0
  CHANNELS 6 Xposition Yposition Zposition Zrotation Xrotation Yrotation
  JOINT pelvis_right_femur
  {
    OFFSET -10.78128 -3.44521 -0.5502486
    CHANNELS 3 Zrotation Xrotation Yrotation
    JOINT right_femur_tibia
    {
      OFFSET -0.8047443 -44.0398 -0.1307829
      CHANNELS 3 Zrotation Xrotation Yrotation
      JOINT right_tibia_foot
      {
        OFFSET 3.006224 -47.83518 -5
        CHANNELS 3 Zrotation Xrotation Yrotation
        End Site
        {
          OFFSET 0 -5 15
        }
      }
    }
  }
  JOINT pelvis_left_femur
  {
    OFFSET 10.78128 -3.44521 -0.5502486
    CHANNELS 3 Zrotation Xrotation Yrotation
    JOINT left_femur_tibia
    {
      OFFSET 0.8047443 -44.0398 -0.1307829
      CHANNELS 3 Zrotation Xrotation Yrotation
      JOINT left_tibia_foot
      {
        OFFSET -4.370144 -48.10324 -4.275266
        CHANNELS 3 Zrotation Xrotation Yrotation
        End Site
        {
          OFFSET 0 -5 15
        }
      }
    }
  }
  JOINT pelvis_spine1
  {
    OFFSET 0 6.468898 -3.129235
    CHANNELS 3 Zrotation Xrotation Yrotation
    JOINT spine1
    {
      OFFSET 0 23.15396 4.99043
      CHANNELS 3 Zrotation Xrotation Yrotation
      JOINT spine2
      {
        OFFSET 0 20.79997 -5.064912
        CHANNELS 3 Zrotation Xrotation Yrotation
        JOINT neck
        {
          OFFSET 0 14.38658 9.616178
          CHANNELS 3 Zrotation Xrotation Yrotation
          End Site
          {
            OFFSET 0 20 0
          }
        }
      }
      JOINT right_manubrium
      {
        OFFSET -5.722621 16.35077 3.967754
        CHANNELS 3 Zrotation Xrotation Yrotation
        JOINT right_clavicle
        {
          OFFSET -13.16364 1.694482 -4.693211
          CHANNELS 3 Zrotation Xrotation Yrotation
          JOINT right_humerus
          {
            OFFSET -28.5034 -0.3100689 -2.792744
            CHANNELS 3 Zrotation Xrotation Yrotation
            JOINT right_radius
            {
              OFFSET -25.15693 0.02248979 -1.271978
              CHANNELS 3 Zrotation Xrotation Yrotation
              End Site
              {
                OFFSET -15 0 0
              }
            }
          }
        }
      }
      JOINT left_manubrium
      {
        OFFSET 5.722621 16.35077 3.967754
        CHANNELS 3 Zrotation Xrotation Yrotation
        JOINT left_clavicle
        {
          OFFSET 13.16364 1.694482 -4.693211
          CHANNELS 3 Zrotation Xrotation Yrotation
          JOINT left_humerus
          {
            OFFSET 29.39168 -1.063119 -2.237045
            CHANNELS 3 Zrotation Xrotation Yrotation
            JOINT left_radius
            {
              OFFSET 24.59957 -0.9528479 0.9047498
              CHANNELS 3 Zrotation Xrotation Yrotation
              End Site
              {
                OFFSET 15 -0 -0
              }
            }
          }
        }
      }
    }
  }
}
MOTION
Frames: 19
Frame Time: 0.0416666666667
1579.379 103.8315 2657.209 7.128461 -2.811598 56.01858 0.2095869 -3.916997 4.141838 -0 55.62694 -0 3.232669 0.3798657 -6.794356 -5.592828 -1.688653 -8.215273 -0 19.32601 -0 -3.507443 -13.56948 16.38098 -2.099991 -1.333461 2.369332 1.425719 10.56172 -9.038514 0.8887502 20.60506 9.26427 3.446113 -17.95014 9.306902 4.193178 -14.282 11.16506 93.45855 33.79121 -26.55495 -0 0 7.345397 -28.94514 22.74997 13.61176 7.594393 -24.6129 -4.637597 -81.6901 21.43329 6.272598 0 0 -29.94558 2.026287 9.18475 12.13269
1584.35 104.3872 2659.818 7.065419 -3.105032 57.29324 0.3858227 -10.64017 3.650735 -0 49.78342 -0 2.654472 -0.8377823 -7.789861 -5.331767 3.372498 -8.276553 -0 16.63862 -0 -3.504177 -15.08341 15.82709 -2.111382 -1.380488 2.306454 1.485053 10.55855 -9.13663 0.8604527 20.55025 9.280862 3.463527 -18.0181 9.285489 4.179092 -14.24671 11.17345 93.61625 33.75166 -26.80268 -0 0 7.21671 -28.78173 22.66608 13.52377 7.646244 -24.73123 -4.643124 -81.57264 21.38497 6.076679 0 0 -30.23432 2.107637 9.095316 12.02156
1589.253 104.2298 2662.464 6.899359 -3.01115 58.35094 0.193815 -16.22183 2.981313 -0 41.00971 -0 2.337834 -2.53861 -8.535697 -5.186566 7.757073 -8.395615 -0 14.51368 -0 -4.003265 -16.72164 15.04701 -2.116384 -1.415822 2.262818 1.53656 10.56156 -9.220803 0.83516 20.49873 9.289024 3.478825 -18.08533 9.259529 4.166607 -14.22815 11.1856 93.74006 33.70389 -27.00793 -0 0 7.124213 -28.62652 22.57387 13.44003 7.684135 -24.82957 -4.648136 -81.48288 21.34334 5.935609 0 0 -30.47688 2.173587 9.00021 11.93088
1594.234 103.4386 2665.256 6.611493 -2.589303 59.20313 -0.1997117 -20.41865 2.221328 -0 31.62681 -0 2.223377 -4.048087 -9.028957 -5.173651 11.37635 -8.522394 -0 13.40639 -0 -4.790736 -18.26112 14.1218 -2.114572 -1.438396 2.239231 1.578486 10.57032 -9.288201 0.8134335 20.45257 9.2894 3.491819 -18.15 9.230406 4.157014 -14.22629 11.20091 93.82721 33.65373 -27.1647 -0 0 7.068774 -28.48531 22.47829 13.36407 7.707426 -24.90525 -4.651594 -81.42428 21.31083 5.854674 0 0 -30.66431 2.222378 8.905396 11.86416
1599.386 102.2175 2668.264 6.267923 -2.05907 59.91351 -0.5070766 -23.28502 1.627324 -0 23.48045 -0 2.187507 -5.036487 -9.357019 -5.198112 14.33724 -8.601084 -0 13.58975 -0 -5.63574 -19.41964 13.24008 -2.106262 -1.448066 2.235193 1.609328 10.5838 -9.336503 0.7957967 20.41387 9.283311 3.502388 -18.20971 9.200119 4.151365 -14.23988 11.21832 93.87677 33.6078 -27.2689 -0 0 7.049187 -28.36459 22.38564 13.29976 7.716486 -24.95657 -4.652505 -81.39848 21.28944 5.835257 0 0 -30.79011 2.253128 8.817846 11.82365
1604.764 100.8303 2671.535 5.992502 -1.668393 60.54653 -0.4777855 -24.91438 1.439351 -0 17.70928 -0 2.068408 -5.549575 -9.633161 -5.137969 16.82167 -8.620707 -0 15.26366 -0 -6.455046 -19.93431 12.58018 -2.091943 -1.444266 2.250829 1.626846 10.601 -9.362271 0.7832648 20.38544 9.271606 3.510054 -18.26062 9.170832 4.150497 -14.26791 11.23665 93.88597 33.57168 -27.31363 -0 0 7.06608 -28.27302 22.30302 13.25194 7.711068 -24.98037 -4.650257 -81.40778 21.28121 5.879549 0 0 -30.8451 2.263966 8.744957 11.81247
1610.389 99.55919 2675.105 5.920608 -1.61465 61.12649 0.02508993 -25.28636 1.770694 -0 14.90903 -0 1.680077 -5.861737 -9.924518 -4.894525 18.90556 -8.616386 -0 18.61558 -0 -7.282864 -19.5805 12.27998 -2.07187 -1.425341 2.287944 1.627807 10.62148 -9.360483 0.7774644 20.37071 9.253988 3.513862 -18.29757 9.14434 4.155028 -14.31061 11.25486 93.84851 33.5486 -27.28738 -0 0 7.1239 -28.22115 22.23713 13.22623 7.689482 -24.97121 -4.644745 -81.45639 21.28837 5.993145 0 0 -30.81553 2.251265 8.693502 11.8355
1616.237 98.66921 2678.974 6.161068 -2.005409 61.61102 0.9997448 -24.29507 2.562141 -0 15.16862 -0 0.8721988 -6.283569 -10.20952 -4.430137 20.39626 -8.640095 -0 23.76241 -0 -8.113291 -18.22335 12.4699 -2.046255 -1.389454 2.348989 1.609147 10.64521 -9.32634 0.780061 20.37266 9.22941 3.512754 -18.31569 9.121713 4.165067 -14.36895 11.27224 93.75721 33.53904 -27.1784 -0 0 7.2287 -28.21824 22.19265 13.22733 7.649537 -24.92346 -4.636276 -81.54849 21.31251 6.182059 0 0 -30.68849 2.211197 8.66789 11.89732
1622.221 98.36094 2683.07 6.730168 -2.799169 61.89318 2.289487 -21.92958 3.589407 -0 17.744 -0 -0.2793595 -6.93956 -10.38493 -3.818134 20.78124 -8.691737 -0 30.55777 -0 -8.793371 -15.95913 13.23378 -2.016109 -1.336924 2.433892 1.570251 10.67171 -9.258951 0.7917021 20.39198 9.197524 3.506279 -18.31274 9.103412 4.179728 -14.4426 11.28829 93.61062 33.54117 -26.98423 -0 0 7.381821 -28.26718 22.1709 13.25646 7.591119 -24.83595 -4.62544 -81.68326 21.35294 6.443912 0 0 -30.4632 2.143243 8.668487 11.99768
1628.209 98.71687 2687.243 7.45877 -3.74214 61.85183 3.611024 -18.44404 4.601276 -0 20.85051 -0 -1.239575 -7.602718 -10.31753 -3.252299 19.41336 -8.641711 -0 38.40079 -0 -9.152062 -13.20038 14.43218 -1.984142 -1.272229 2.536728 1.514496 10.69894 -9.163963 0.8113883 20.42633 9.160346 3.495022 -18.28987 9.090215 4.196971 -14.52706 11.3021 93.41907 33.55235 -26.71957 -0 0 7.573392 -28.36258 22.17117 13.31035 7.5186 -24.71557 -4.613139 -81.8502 21.40568 6.758922 0 0 -30.1594 2.052907 8.692359 12.12799
1634.086 99.6668 2691.319 8.037368 -4.448658 61.42844 4.647057 -14.27357 5.480103 -0 22.46139 -0 -1.238819 -7.882441 -9.888129 -2.91358 15.88415 -8.292542 -0 46.29318 -0 -9.238468 -10.50468 15.64251 -1.954568 -1.203208 2.645883 1.448078 10.72322 -9.051828 0.8370816 20.4718 9.122421 3.480182 -18.24944 9.084258 4.214275 -14.61303 11.31182 93.20329 33.57108 -26.41303 -0 0 7.782584 -28.49501 22.19421 13.38352 7.440302 -24.57541 -4.600698 -82.03024 21.46453 7.091155 0 0 -29.81194 1.950292 8.73675 12.27337
1639.789 100.9899 2695.167 8.297932 -4.671932 60.67601 5.159334 -9.743828 6.15653 -0 21.73656 -0 -0.1244382 -7.766156 -9.048287 -2.790814 10.30041 -7.602591 -0 53.04502 -0 -9.245799 -8.349944 16.50042 -1.931332 -1.137611 2.748793 1.377351 10.74084 -8.933382 0.8667366 20.52482 9.088702 3.462872 -18.19336 9.088204 4.229631 -14.6899 11.31536 92.98571 33.59648 -26.09521 -0 0 7.986239 -28.65533 22.24217 13.47058 7.364845 -24.42908 -4.589745 -82.20326 21.52345 7.402521 0 0 -29.4559 1.845634 8.800105 12.41888
1645.303 102.3658 2698.738 8.335817 -4.452151 59.74654 5.094724 -4.98557 6.504201 -0 19.34852 -0 1.350711 -7.758997 -7.872465 -2.693163 3.264675 -6.734716 -0 57.31322 -0 -9.219613 -7.063207 17.03609 -1.916424 -1.080401 2.836737 1.307431 10.74998 -8.817237 0.8985757 20.58216 9.062162 3.443958 -18.12418 9.103023 4.241934 -14.75032 11.31178 92.7832 33.62618 -25.79012 -0 0 8.167494 -28.83373 22.31413 13.56596 7.298021 -24.28695 -4.581802 -82.3549 21.57789 7.666435 0 0 -29.11733 1.746432 8.879283 12.55351
1650.637 103.4612 2702.05 8.236878 -3.974955 58.81542 4.633874 -0.1378104 6.473815 -0 16.49764 -0 2.366363 -8.346292 -6.489191 -2.374085 -4.402632 -5.823704 -0 57.75183 -0 -9.074599 -6.699923 17.49425 -1.909843 -1.03379 2.905579 1.242253 10.75091 -8.709785 0.9308622 20.64055 9.043561 3.424298 -18.04609 9.127338 4.250841 -14.79129 11.30168 92.6063 33.65652 -25.51446 -0 0 8.317149 -29.01866 22.40455 13.66348 7.242677 -24.15635 -4.577802 -82.47755 21.6249 7.870113 0 0 -28.81343 1.657621 8.968572 12.67027
1655.839 104.0085 2705.146 7.87998 -3.429084 57.99641 4.119136 4.512258 6.136216 -0 14.05965 -0 2.65718 -9.627918 -4.985112 -1.597479 -11.92387 -4.830166 -0 53.57823 -0 -8.801497 -6.960358 17.9808 -1.910539 -0.9987044 2.953677 1.185136 10.74491 -8.616286 0.9616883 20.69655 9.032701 3.404984 -17.96467 9.158401 4.256522 -14.81245 11.28655 92.46234 33.68475 -25.28112 -0 0 8.429995 -29.19748 22.50539 13.75665 7.200325 -24.04331 -4.577846 -82.56767 21.66266 8.009032 0 0 -28.55691 1.583034 9.061301 12.76446
1660.986 103.8743 2708.079 7.069914 -2.975043 57.30371 3.869545 8.591449 5.575182 -0 12.4047 -0 2.383213 -11.43587 -3.392018 -0.2410618 -18.6345 -3.636741 -0 45.29003 -0 -8.442747 -7.334484 18.38357 -1.91721 -0.9759194 2.979981 1.13921 10.73339 -8.541731 0.9889354 20.74664 9.029425 3.387386 -17.88633 9.19309 4.259446 -14.81431 11.26812 92.35814 33.71014 -25.10209 -0 0 8.501533 -29.35753 22.60827 13.83921 7.172398 -23.95395 -4.581296 -82.62308 21.69004 8.081482 0 0 -28.35954 1.526421 9.151284 12.83221
1666.195 103.1139 2710.917 5.815385 -2.698977 56.67492 3.947378 11.81779 4.906239 -0 11.58502 -0 1.89391 -13.42212 -1.779478 1.491317 -23.94472 -2.285046 -0 35.00473 -0 -7.950989 -7.392562 18.54828 -1.928669 -0.966329 2.983512 1.107322 10.71758 -8.490758 1.010481 20.78752 9.033851 3.373003 -17.81734 9.22845 4.260194 -14.79761 11.24801 92.30018 33.73379 -24.98854 -0 0 8.527378 -29.48746 22.70576 13.90566 7.160458 -23.8943 -4.587039 -82.64212 21.7063 8.086635 0 0 -28.23231 1.491413 9.233448 12.87024
1671.623 101.9579 2713.749 4.506425 -2.556515 56.03528 4.036206 14.19892 4.390718 -0 11.75014 -0 1.626064 -14.94905 -0.3688159 2.921632 -27.37575 -1.196369 -0 25.86984 -0 -7.263443 -7.063672 18.48449 -1.943919 -0.9705759 2.963967 1.091528 10.69853 -8.466781 1.02459 20.81652 9.04602 3.363142 -17.76293 9.261909 4.259275 -14.7636 11.22763 92.29299 33.75735 -24.94838 -0 0 8.504931 -29.57873 22.79183 13.95193 7.165611 -23.86898 -4.593857 -82.62429 21.7111 8.025526 0 0 -28.1832 1.480657 9.30381 12.87658
1677.441 100.7184 2716.668 3.753894 -2.408005 55.37191 3.644899 16.01208 4.35471 -0 13.5385 -0 1.940107 -15.17254 0.4867499 3.179995 -28.72016 -1.025072 -0 20.44381 -0 -6.508782 -6.697211 18.36565 -1.962064 -0.9884969 2.922672 1.092598 10.67742 -8.47108 1.030281 20.83195 9.065338 3.35862 -17.72653 9.291249 4.256928 -14.7147 11.20827 92.33699 33.78119 -24.98368 -0 0 8.435655 -29.62642 22.86158 13.97569 7.187712 -23.87973 -4.600814 -82.57124 21.70451 7.902951 0 0 -28.21474 1.494844 9.358872 12.85132
